# xmcd
#
# Track frame offsets: 
#        150
#        25348
#        49803
#        77640
#        101230
#        126405
#        150965
#        178785
#
# Disc length: 2696 seconds
#
# Revision: 0
# Processed by: cddbd v1.5.1PL2 Copyright (c) Steve Scherf et al.
# Submitted via: ExactAudioCopy v0.95a5
#
DISCID=620a8608
DTITLE=Big Joe - Midnight Express - New Departure Version
DYEAR=2006
DGENRE=Hip-Hop
TTITLE0=Midnight Express "New Departure Version"
TTITLE1=Midnight Express "New Depature Version" O.N.O Remix
TTITLE2=In the Darkness "Original Version"
TTITLE3=In the Darkness "Sadness Version"
TTITLE4=Midnight Express "New Departure Version" Instrumental
TTITLE5=Midnight Express "New Departure Version" O.N.O Remix Instrumen
TTITLE5=tal
TTITLE6=In the Darkness "Original Version" Instrumental
TTITLE7=In the Darkness "Sadness Remix" Instrumental
EXTD=
EXTT0=
EXTT1=
EXTT2=
EXTT3=
EXTT4=
EXTT5=
EXTT6=
EXTT7=
PLAYORDER=
